<?xml version="1.0" encoding="UTF-8" standalone="no"?>
<!-- Created with Inkscape (http://www.inkscape.org/) -->

<svg
   xmlns:dc="http://purl.org/dc/elements/1.1/"
   xmlns:cc="http://creativecommons.org/ns#"
   xmlns:rdf="http://www.w3.org/1999/02/22-rdf-syntax-ns#"
   xmlns:svg="http://www.w3.org/2000/svg"
   xmlns="http://www.w3.org/2000/svg"
   xmlns:sodipodi="http://sodipodi.sourceforge.net/DTD/sodipodi-0.dtd"
   xmlns:inkscape="http://www.inkscape.org/namespaces/inkscape"
   width="52.164543mm"
   height="52.164543mm"
   viewBox="0 0 52.164543 52.164543"
   version="1.1"
   id="svg4213"
   inkscape:version="0.92.3 (2405546, 2018-03-11)"
   sodipodi:docname="Winter time clock.svg">
  <title
     id="title4790">Winter time clock</title>
  <defs
     id="defs4207" />
  <sodipodi:namedview
     id="base"
     pagecolor="#ffffff"
     bordercolor="#666666"
     borderopacity="1.0"
     inkscape:pageopacity="0.0"
     inkscape:pageshadow="2"
     inkscape:zoom="3.0136842"
     inkscape:cx="155.71429"
     inkscape:cy="92.857143"
     inkscape:document-units="mm"
     inkscape:current-layer="layer1"
     showgrid="false"
     fit-margin-top="0"
     fit-margin-left="0"
     fit-margin-right="0"
     fit-margin-bottom="0"
     inkscape:window-width="1920"
     inkscape:window-height="1017"
     inkscape:window-x="3832"
     inkscape:window-y="-8"
     inkscape:window-maximized="1" />
  <metadata
     id="metadata4210">
    <rdf:RDF>
      <cc:Work
         rdf:about="">
        <dc:format>image/svg+xml</dc:format>
        <dc:type
           rdf:resource="http://purl.org/dc/dcmitype/StillImage" />
        <dc:title>Winter time clock</dc:title>
        <cc:license
           rdf:resource="http://creativecommons.org/publicdomain/zero/1.0/" />
      </cc:Work>
      <cc:License
         rdf:about="http://creativecommons.org/publicdomain/zero/1.0/">
        <cc:permits
           rdf:resource="http://creativecommons.org/ns#Reproduction" />
        <cc:permits
           rdf:resource="http://creativecommons.org/ns#Distribution" />
        <cc:permits
           rdf:resource="http://creativecommons.org/ns#DerivativeWorks" />
      </cc:License>
    </rdf:RDF>
  </metadata>
  <g
     inkscape:label="Layer 1"
     inkscape:groupmode="layer"
     id="layer1"
     transform="translate(91.094181,-102.34035)">
    <g
       transform="matrix(0.35277777,0,0,-0.35277777,-104.54595,245.75721)"
       id="g1909">
      <path
         inkscape:connector-curvature="0"
         id="path36038"
         style="fill:#231f20;fill-opacity:1;fill-rule:nonzero;stroke:none"
         d="m 110.734,368.502 c 0.004,10e-4 0.006,0.004 0.01,0.004 0.027,-0.071 0.101,-0.11 0.219,-0.112 l 4.13,-0.113 c 0.053,-0.002 0.09,10e-4 0.129,0.003 0.022,-0.008 0.045,-0.014 0.073,-0.019 l 4.085,-0.615 c 0.14,-0.02 0.227,-0.022 0.265,-0.004 0.036,0.017 0.068,0.115 0.095,0.292 l 0.049,0.328 c 0.023,0.151 0.022,0.258 -0.002,0.326 -0.025,0.065 -0.112,0.15 -0.262,0.253 -0.233,0.16 -0.333,0.345 -0.301,0.558 l 1.512,10.062 c 0.056,0.38 0.263,0.574 0.618,0.584 0.108,0.001 0.183,0.034 0.225,0.102 0.042,0.069 0.085,0.25 0.129,0.546 0.029,0.196 0.024,0.316 -0.014,0.362 -0.039,0.045 -0.133,0.08 -0.284,0.103 l -4.01,0.602 c -0.184,0.028 -0.289,-0.045 -0.315,-0.218 l -0.066,-0.443 c -0.02,-0.134 -0.019,-0.228 0.004,-0.28 0.024,-0.052 0.101,-0.119 0.231,-0.202 0.178,-0.105 0.286,-0.224 0.324,-0.351 0.037,-0.129 0.039,-0.311 0.003,-0.544 l -1.493,-9.937 c -0.035,-0.234 -0.209,-0.371 -0.523,-0.409 -0.097,-0.015 -0.169,-0.04 -0.224,-0.071 -0.048,0.051 -0.122,0.109 -0.25,0.174 -0.25,0.131 -0.372,0.304 -0.366,0.519 L 115,380.173 c 0.01,0.383 0.191,0.601 0.543,0.654 0.107,0.014 0.178,0.058 0.211,0.13 0.033,0.072 0.053,0.258 0.061,0.557 0.006,0.198 -0.013,0.317 -0.058,0.357 -0.044,0.041 -0.142,0.064 -0.295,0.067 l -4.053,0.111 c -0.185,0.005 -0.281,-0.08 -0.286,-0.256 l -0.011,-0.448 c -0.004,-0.135 0.009,-0.228 0.039,-0.277 0.029,-0.048 0.113,-0.105 0.253,-0.172 0.19,-0.083 0.31,-0.187 0.364,-0.309 0.053,-0.123 0.077,-0.303 0.07,-0.54 l -0.272,-10.045 c -0.006,-0.236 -0.163,-0.394 -0.47,-0.47 -0.074,-0.019 -0.128,-0.046 -0.175,-0.073 -0.019,0.059 -0.04,0.103 -0.064,0.133 -0.047,0.058 -0.144,0.115 -0.288,0.169 -0.121,0.047 -0.199,0.093 -0.237,0.138 -0.038,0.046 -0.103,0.154 -0.194,0.324 l -2.974,5.786 1.419,4.545 c 0.027,0.089 0.112,0.194 0.255,0.316 0.142,0.122 0.206,0.239 0.191,0.352 l -0.082,0.594 c -0.021,0.152 -0.102,0.217 -0.241,0.198 l -1.945,-0.268 c -0.117,-0.017 -0.183,-0.063 -0.198,-0.14 -0.016,-0.076 -0.005,-0.248 0.032,-0.516 0.034,-0.24 0.126,-0.381 0.281,-0.422 0.176,-0.045 0.273,-0.125 0.289,-0.242 0.019,-0.133 -0.091,-0.559 -0.327,-1.276 l -0.511,-1.512 -0.98,1.905 c -0.122,0.227 -0.193,0.411 -0.212,0.552 -0.015,0.105 0.06,0.204 0.223,0.295 0.155,0.084 0.221,0.201 0.2,0.352 l -0.079,0.578 c -0.023,0.163 -0.105,0.234 -0.244,0.215 l -3.517,-0.486 c -0.218,-0.029 -0.316,-0.132 -0.291,-0.305 l 0.07,-0.512 c 0.011,-0.083 0.073,-0.157 0.185,-0.222 0.235,-0.144 0.405,-0.321 0.509,-0.529 l 2.961,-5.751 -1.225,-4.075 c -0.102,-0.332 -0.184,-0.557 -0.244,-0.674 -0.062,-0.117 -0.162,-0.223 -0.302,-0.324 -0.17,-0.126 -0.25,-0.235 -0.236,-0.331 l 0.085,-0.621 c 0.022,-0.155 0.119,-0.223 0.292,-0.199 l 2.022,0.28 c 0.106,0.014 0.169,0.045 0.187,0.094 0.019,0.049 0.012,0.195 -0.022,0.441 -0.039,0.285 -0.077,0.444 -0.112,0.476 -0.036,0.032 -0.078,0.058 -0.126,0.081 -0.225,0.1 -0.344,0.203 -0.359,0.31 -0.018,0.127 0.024,0.344 0.124,0.648 l 0.725,2.323 1.069,-2.074 c 0.1,-0.192 0.162,-0.368 0.185,-0.53 0.017,-0.129 -0.057,-0.259 -0.22,-0.389 -0.145,-0.112 -0.206,-0.251 -0.182,-0.419 l 0.074,-0.536 c 0.021,-0.157 0.121,-0.223 0.301,-0.198 z m -26.54,4.096 c 0.073,-0.116 0.135,-0.185 0.186,-0.208 0.052,-0.025 0.155,-0.026 0.308,-0.002 0.203,0.034 0.362,0.016 0.474,-0.057 0.113,-0.073 0.233,-0.21 0.358,-0.41 l 5.348,-8.507 c 0.126,-0.2 0.084,-0.418 -0.13,-0.652 -0.116,-0.132 -0.162,-0.245 -0.138,-0.336 0.024,-0.092 0.144,-0.31 0.36,-0.654 0.066,-0.105 0.166,-0.116 0.3,-0.031 l 3.498,2.198 c 0.119,0.076 0.186,0.132 0.204,0.169 0.016,0.038 -0.024,0.132 -0.12,0.286 l -0.176,0.279 c -0.081,0.128 -0.152,0.211 -0.214,0.245 -0.061,0.035 -0.182,0.041 -0.364,0.021 -0.28,-0.03 -0.478,0.045 -0.592,0.228 l -5.416,8.613 c -0.204,0.325 -0.174,0.607 0.089,0.846 0.081,0.071 0.117,0.146 0.103,0.225 -0.013,0.079 -0.099,0.245 -0.257,0.498 -0.105,0.167 -0.188,0.255 -0.247,0.265 -0.059,0.009 -0.154,-0.026 -0.283,-0.108 l -3.432,-2.157 c -0.157,-0.1 -0.191,-0.224 -0.097,-0.371 z m -7.674,-6.567 c 0.056,-0.062 0.148,-0.09 0.277,-0.079 0.277,0.013 0.516,-0.038 0.719,-0.152 l 5.679,-3.094 1.277,-4.059 c 0.102,-0.334 0.161,-0.565 0.176,-0.696 0.016,-0.131 -0.007,-0.276 -0.067,-0.436 -0.071,-0.202 -0.074,-0.336 -0.009,-0.408 l 0.419,-0.464 c 0.107,-0.118 0.224,-0.118 0.354,-10e-4 l 1.514,1.366 c 0.08,0.071 0.115,0.134 0.103,0.183 -0.011,0.051 -0.099,0.167 -0.267,0.353 -0.192,0.214 -0.312,0.324 -0.36,0.331 -0.047,0.006 -0.097,0.004 -0.149,-0.005 -0.242,-0.043 -0.399,-0.025 -0.471,0.055 -0.086,0.096 -0.174,0.299 -0.262,0.607 l -0.705,2.328 2.05,-1.115 c 0.19,-0.102 0.341,-0.214 0.45,-0.336 0.088,-0.096 0.1,-0.244 0.037,-0.444 -0.057,-0.173 -0.029,-0.323 0.085,-0.448 l 0.362,-0.403 c 0.106,-0.117 0.226,-0.117 0.36,0.004 l 2.659,2.4 c 0.101,0.089 0.131,0.189 0.09,0.296 -0.039,0.108 -0.146,0.256 -0.315,0.447 -0.117,0.129 -0.213,0.204 -0.285,0.226 -0.073,0.022 -0.184,0.015 -0.334,-0.022 -0.126,-0.029 -0.216,-0.036 -0.273,-0.018 -0.057,0.016 -0.172,0.07 -0.343,0.158 l -5.711,3.116 -1.379,4.556 c -0.027,0.089 -0.016,0.225 0.033,0.406 0.049,0.182 0.037,0.314 -0.039,0.398 l -0.403,0.446 c -0.102,0.114 -0.205,0.122 -0.31,0.029 l -1.458,-1.316 c -0.087,-0.079 -0.117,-0.154 -0.087,-0.226 0.031,-0.071 0.137,-0.207 0.318,-0.408 0.162,-0.18 0.319,-0.246 0.47,-0.193 0.171,0.063 0.296,0.051 0.375,-0.037 0.09,-0.1 0.238,-0.514 0.445,-1.239 l 0.428,-1.538 -1.881,1.025 c -0.229,0.119 -0.391,0.232 -0.485,0.337 -0.072,0.079 -0.066,0.202 0.018,0.37 0.08,0.156 0.069,0.291 -0.032,0.403 l -0.392,0.434 c -0.109,0.122 -0.217,0.135 -0.321,0.04 l -2.637,-2.377 c -0.163,-0.147 -0.187,-0.286 -0.069,-0.416 z m -9.582,-13.582 0.454,-0.245 c 0.075,-0.04 0.171,-0.034 0.289,0.018 0.256,0.105 0.498,0.138 0.727,0.098 l 6.389,-1.005 2.566,-3.394 c 0.209,-0.279 0.342,-0.479 0.4,-0.596 0.058,-0.118 0.086,-0.262 0.084,-0.434 0.001,-0.212 0.043,-0.341 0.128,-0.387 l 0.55,-0.297 c 0.14,-0.075 0.251,-0.036 0.334,0.118 l 0.968,1.796 c 0.051,0.094 0.063,0.163 0.035,0.207 -0.028,0.045 -0.151,0.125 -0.369,0.242 -0.254,0.137 -0.404,0.201 -0.451,0.191 -0.047,-0.01 -0.093,-0.028 -0.14,-0.054 -0.213,-0.122 -0.367,-0.158 -0.461,-0.106 -0.114,0.061 -0.264,0.221 -0.45,0.483 l -1.447,1.956 2.305,-0.362 c 0.214,-0.032 0.393,-0.086 0.537,-0.164 0.114,-0.062 0.176,-0.198 0.184,-0.408 0.004,-0.182 0.081,-0.313 0.23,-0.394 l 0.477,-0.256 c 0.139,-0.075 0.251,-0.033 0.337,0.126 l 1.699,3.151 c 0.065,0.12 0.06,0.223 -0.015,0.311 -0.073,0.089 -0.224,0.193 -0.446,0.313 -0.155,0.083 -0.269,0.122 -0.346,0.119 -0.076,-0.004 -0.177,-0.048 -0.307,-0.132 -0.108,-0.071 -0.192,-0.108 -0.251,-0.111 -0.059,-0.003 -0.185,0.009 -0.376,0.036 l -6.426,1.015 -2.83,3.828 c -0.055,0.075 -0.089,0.206 -0.104,0.394 -0.015,0.187 -0.072,0.307 -0.17,0.361 l -0.53,0.284 c -0.134,0.074 -0.235,0.047 -0.302,-0.077 l -0.931,-1.728 c -0.057,-0.104 -0.058,-0.185 -0.006,-0.242 0.053,-0.057 0.198,-0.15 0.436,-0.279 0.214,-0.115 0.383,-0.123 0.508,-0.022 0.139,0.117 0.262,0.146 0.366,0.09 0.119,-0.063 0.397,-0.404 0.835,-1.018 l 0.92,-1.306 -2.115,0.335 c -0.257,0.035 -0.447,0.087 -0.571,0.155 -0.094,0.05 -0.13,0.169 -0.106,0.355 0.022,0.173 -0.033,0.297 -0.167,0.369 l -0.515,0.277 c -0.143,0.078 -0.249,0.054 -0.316,-0.071 l -1.685,-3.124 c -0.105,-0.194 -0.08,-0.333 0.075,-0.416 m -3.09,-22.663 c 0.076,0.193 0.174,0.319 0.294,0.378 0.121,0.059 0.299,0.09 0.537,0.094 l 10.046,0.18 c 0.236,0.003 0.4,-0.145 0.491,-0.449 0.053,-0.169 0.126,-0.265 0.216,-0.293 0.091,-0.026 0.339,-0.036 0.745,-0.028 0.124,0.002 0.186,0.082 0.182,0.24 l -0.073,4.13 c -0.003,0.142 -0.016,0.229 -0.038,0.262 -0.013,0.017 -0.049,0.029 -0.105,0.037 0.01,0.027 0.02,0.056 0.026,0.09 l 0.315,2.016 c 0.016,0.106 0.004,0.175 -0.036,0.207 -0.041,0.032 -0.183,0.067 -0.429,0.106 -0.284,0.044 -0.447,0.054 -0.488,0.029 -0.04,-0.025 -0.079,-0.056 -0.114,-0.097 -0.16,-0.186 -0.293,-0.271 -0.399,-0.254 -0.128,0.02 -0.324,0.122 -0.586,0.305 l -2.015,1.365 2.294,0.425 c 0.213,0.041 0.399,0.049 0.561,0.023 0.129,-0.02 0.231,-0.127 0.31,-0.323 0.064,-0.169 0.18,-0.269 0.347,-0.294 l 0.536,-0.084 c 0.156,-0.025 0.248,0.052 0.276,0.231 l 0.553,3.537 c 0.022,0.134 -0.018,0.231 -0.117,0.288 -0.099,0.059 -0.275,0.108 -0.525,0.147 -0.173,0.028 -0.295,0.027 -0.365,-0.002 -0.07,-0.03 -0.151,-0.105 -0.245,-0.227 -0.079,-0.102 -0.146,-0.165 -0.201,-0.187 -0.055,-0.024 -0.177,-0.054 -0.365,-0.093 l -6.399,-1.18 -3.942,2.67 c -0.077,0.052 -0.154,0.164 -0.23,0.336 -0.075,0.172 -0.17,0.267 -0.281,0.284 l -0.594,0.092 c -0.15,0.024 -0.236,-0.034 -0.258,-0.173 l -0.304,-1.939 c -0.018,-0.117 0.007,-0.195 0.075,-0.231 0.069,-0.037 0.237,-0.075 0.505,-0.117 0.24,-0.038 0.401,0.011 0.486,0.147 0.093,0.157 0.197,0.225 0.315,0.207 0.132,-0.02 0.508,-0.248 1.127,-0.681 l 1.301,-0.926 -2.107,-0.388 c -0.253,-0.052 -0.45,-0.067 -0.59,-0.045 -0.105,0.016 -0.178,0.116 -0.218,0.299 -0.036,0.172 -0.129,0.27 -0.279,0.294 l -0.578,0.089 c -0.161,0.026 -0.253,-0.032 -0.275,-0.171 l -0.55,-3.508 c -0.034,-0.216 0.036,-0.339 0.209,-0.367 l 0.51,-0.079 c 0.083,-0.012 0.172,0.024 0.266,0.113 0.206,0.184 0.425,0.295 0.653,0.334 l 6.361,1.177 3.548,-2.347 c 0.29,-0.195 0.482,-0.337 0.575,-0.43 0.094,-0.092 0.169,-0.218 0.223,-0.381 0.072,-0.2 0.155,-0.308 0.25,-0.322 l 0.051,-0.008 c -0.011,-0.004 -0.026,-0.006 -0.035,-0.011 -0.062,-0.035 -0.129,-0.135 -0.206,-0.301 -0.12,-0.254 -0.287,-0.385 -0.501,-0.389 l -10.173,-0.182 c -0.385,-0.007 -0.61,0.164 -0.678,0.514 -0.019,0.106 -0.066,0.175 -0.14,0.205 -0.073,0.029 -0.26,0.041 -0.559,0.036 -0.197,-0.004 -0.316,-0.028 -0.354,-0.074 -0.039,-0.046 -0.057,-0.145 -0.054,-0.298 l 0.072,-4.054 c 0.004,-0.186 0.093,-0.277 0.268,-0.274 l 0.448,0.008 c 0.135,0.003 0.226,0.02 0.274,0.051 0.047,0.032 0.101,0.12 0.16,0.261 m 6.033,-21.052 c 0.03,0.049 0.039,0.151 0.032,0.305 -0.017,0.206 0.017,0.362 0.099,0.468 0.083,0.105 0.23,0.211 0.442,0.318 l 8.964,4.537 c 0.212,0.108 0.424,0.044 0.638,-0.189 0.121,-0.128 0.229,-0.185 0.322,-0.169 0.093,0.016 0.321,0.115 0.684,0.299 0.111,0.055 0.131,0.154 0.059,0.296 l -1.811,3.578 -1.368,3.623 -1,3.863 c -0.035,0.136 -0.068,0.218 -0.099,0.245 -0.029,0.027 -0.132,0.018 -0.307,-0.027 l -0.32,-0.083 c -0.148,-0.038 -0.246,-0.082 -0.299,-0.129 -0.052,-0.05 -0.094,-0.162 -0.13,-0.341 -0.057,-0.277 -0.189,-0.442 -0.397,-0.496 l -9.849,-2.551 c -0.372,-0.095 -0.631,0.017 -0.779,0.341 -0.043,0.1 -0.105,0.155 -0.183,0.167 -0.079,0.012 -0.264,-0.02 -0.553,-0.095 -0.192,-0.049 -0.301,-0.101 -0.327,-0.155 -0.027,-0.054 -0.021,-0.154 0.017,-0.302 l 1.016,-3.925 c 0.047,-0.18 0.155,-0.249 0.325,-0.204 l 0.434,0.112 c 0.131,0.034 0.216,0.072 0.255,0.114 0.038,0.042 0.07,0.14 0.094,0.292 0.029,0.205 0.095,0.351 0.198,0.436 0.103,0.084 0.27,0.157 0.499,0.215 l 9.727,2.52 c 0.208,0.054 0.385,-0.036 0.535,-0.255 -0.004,-0.029 -0.01,-0.049 -0.013,-0.082 -0.027,-0.281 -0.14,-0.459 -0.341,-0.534 l -9.519,-3.594 c -0.36,-0.136 -0.63,-0.051 -0.812,0.255 -0.053,0.094 -0.12,0.142 -0.199,0.146 -0.08,0.003 -0.26,-0.048 -0.539,-0.154 -0.185,-0.07 -0.288,-0.133 -0.31,-0.188 -0.02,-0.057 -0.003,-0.156 0.05,-0.298 l 1.432,-3.794 c 0.065,-0.174 0.18,-0.231 0.344,-0.168 l 0.42,0.157 c 0.126,0.049 0.207,0.096 0.24,0.142 0.035,0.045 0.055,0.145 0.064,0.299 0.007,0.208 0.056,0.359 0.15,0.455 0.093,0.095 0.251,0.185 0.473,0.269 l 9.4,3.548 c 0.202,0.076 0.39,0.004 0.564,-0.202 -0.001,-0.031 -0.005,-0.053 -0.005,-0.088 0.005,-0.282 -0.089,-0.473 -0.281,-0.569 l -9.078,-4.595 c -0.343,-0.174 -0.62,-0.118 -0.834,0.166 -0.063,0.088 -0.135,0.13 -0.214,0.123 -0.08,-0.004 -0.253,-0.074 -0.52,-0.21 -0.176,-0.089 -0.271,-0.163 -0.286,-0.221 -0.015,-0.058 0.012,-0.155 0.08,-0.291 l 1.831,-3.618 c 0.084,-0.166 0.205,-0.209 0.361,-0.131 l 0.4,0.203 c 0.121,0.061 0.196,0.117 0.224,0.166 m 13.214,1.877 c 0.261,0.276 0.409,0.45 0.441,0.521 0.032,0.071 0.027,0.138 -0.015,0.197 l -0.986,1.386 c -0.061,0.087 -0.121,0.118 -0.178,0.091 l -0.624,-0.279 -10.246,-4.577 c -0.311,-0.137 -0.513,-0.212 -0.606,-0.222 -0.092,-0.01 -0.234,0.02 -0.424,0.092 -0.071,0.033 -0.135,0.036 -0.192,0.009 -0.057,-0.025 -0.192,-0.115 -0.407,-0.267 -0.183,-0.13 -0.29,-0.219 -0.322,-0.266 -0.032,-0.047 -0.02,-0.109 0.035,-0.188 l 1.213,-1.706 c 0.066,-0.091 0.132,-0.129 0.198,-0.112 0.068,0.017 0.204,0.098 0.41,0.244 l 0.109,0.077 c 0.035,0.019 0.069,0.039 0.101,0.062 0.068,0.048 0.086,0.172 0.055,0.372 -0.055,0.312 0.009,0.535 0.193,0.666 0.051,0.036 0.103,0.066 0.155,0.09 l 6.083,2.727 -4.659,-4.738 c -0.054,-0.06 -0.106,-0.106 -0.157,-0.143 -0.211,-0.15 -0.437,-0.158 -0.677,-0.025 -0.103,0.06 -0.188,0.071 -0.253,0.038 -0.267,-0.175 -0.403,-0.264 -0.407,-0.267 -0.192,-0.137 -0.25,-0.257 -0.175,-0.364 l 2.23,-3.137 c 0.079,-0.111 0.194,-0.113 0.344,-0.005 l 0.096,0.068 c 0.024,0.024 0.052,0.048 0.084,0.07 0.046,0.033 0.095,0.064 0.148,0.095 0.036,0.02 0.07,0.039 0.102,0.062 0.095,0.068 0.151,0.124 0.166,0.165 0.015,0.042 0.017,0.128 0.006,0.259 -0.021,0.254 0.069,0.484 0.269,0.689 z m 7.457,-8.605 c 0.144,0.188 0.363,0.223 0.657,0.105 0.165,-0.063 0.287,-0.066 0.364,-0.012 0.077,0.054 0.239,0.244 0.485,0.566 0.077,0.099 0.051,0.195 -0.075,0.292 l -3.281,2.51 c -0.112,0.085 -0.189,0.129 -0.229,0.132 -0.04,0.003 -0.116,-0.068 -0.225,-0.211 l -0.201,-0.262 c -0.093,-0.122 -0.144,-0.217 -0.155,-0.287 -0.011,-0.07 0.025,-0.186 0.106,-0.349 0.127,-0.252 0.125,-0.464 -0.005,-0.634 l -6.18,-8.083 c -0.233,-0.305 -0.507,-0.376 -0.823,-0.213 -0.095,0.051 -0.178,0.058 -0.248,0.019 -0.069,-0.04 -0.194,-0.179 -0.376,-0.415 -0.12,-0.157 -0.175,-0.266 -0.162,-0.323 0.012,-0.06 0.079,-0.136 0.199,-0.228 l 3.221,-2.463 c 0.148,-0.113 0.275,-0.1 0.382,0.038 l 0.271,0.358 c 0.083,0.107 0.127,0.188 0.131,0.246 0.005,0.057 -0.03,0.153 -0.104,0.288 -0.105,0.18 -0.142,0.334 -0.114,0.464 0.029,0.132 0.115,0.291 0.26,0.479 z m -1.034,-11.754 c 0.012,0.133 0.077,0.303 0.194,0.508 l 5.007,8.712 c 0.119,0.205 0.331,0.269 0.637,0.19 0.172,-0.041 0.293,-0.028 0.363,0.036 0.069,0.064 0.205,0.273 0.408,0.625 0.061,0.108 0.023,0.2 -0.114,0.28 l -3.582,2.058 c -0.121,0.069 -0.203,0.104 -0.244,0.101 -0.04,-0.002 -0.105,-0.082 -0.195,-0.239 l -0.165,-0.287 c -0.076,-0.131 -0.114,-0.233 -0.116,-0.303 -0.002,-0.072 0.049,-0.182 0.152,-0.331 0.158,-0.235 0.184,-0.445 0.076,-0.631 l -5.069,-8.822 c -0.192,-0.333 -0.454,-0.438 -0.788,-0.317 -0.102,0.038 -0.185,0.033 -0.248,-0.015 -0.063,-0.047 -0.169,-0.202 -0.318,-0.461 -0.099,-0.171 -0.139,-0.286 -0.12,-0.341 0.021,-0.058 0.097,-0.124 0.228,-0.201 l 3.516,-2.02 c 0.162,-0.092 0.285,-0.063 0.373,0.089 l 0.223,0.389 c 0.068,0.118 0.1,0.205 0.097,0.262 -0.003,0.057 -0.05,0.147 -0.142,0.272 -0.127,0.164 -0.184,0.312 -0.173,0.446 m 11.058,8.661 -1.597,0.585 c -0.1,0.037 -0.166,0.028 -0.199,-0.026 l -0.357,-0.583 -5.852,-9.576 c -0.178,-0.288 -0.302,-0.464 -0.373,-0.525 -0.07,-0.061 -0.204,-0.116 -0.403,-0.164 -0.077,-0.015 -0.131,-0.047 -0.163,-0.102 -0.031,-0.052 -0.093,-0.204 -0.183,-0.451 -0.077,-0.211 -0.116,-0.344 -0.116,-0.401 0.001,-0.057 0.046,-0.102 0.136,-0.135 l 1.966,-0.72 c 0.106,-0.038 0.181,-0.031 0.228,0.021 0.045,0.052 0.112,0.195 0.198,0.433 l 0.046,0.126 c 0.02,0.035 0.035,0.07 0.049,0.107 0.029,0.079 -0.026,0.191 -0.165,0.338 -0.224,0.226 -0.297,0.446 -0.219,0.658 0.022,0.06 0.047,0.112 0.077,0.162 l 3.47,5.693 -1.158,-6.542 c -0.011,-0.081 -0.026,-0.15 -0.048,-0.208 -0.089,-0.244 -0.27,-0.378 -0.544,-0.404 -0.119,-0.011 -0.195,-0.048 -0.231,-0.112 -0.12,-0.296 -0.181,-0.447 -0.183,-0.452 -0.081,-0.221 -0.06,-0.354 0.062,-0.399 l 3.614,-1.322 c 0.128,-0.047 0.223,0.017 0.286,0.19 l 0.041,0.111 c 0.007,0.034 0.016,0.068 0.03,0.105 0.019,0.053 0.042,0.108 0.068,0.163 0.019,0.036 0.035,0.072 0.048,0.109 0.042,0.11 0.056,0.186 0.044,0.229 -0.011,0.043 -0.058,0.116 -0.141,0.217 -0.162,0.198 -0.218,0.439 -0.168,0.721 l 1.793,11.322 c 0.059,0.374 0.082,0.602 0.068,0.679 -0.013,0.077 -0.055,0.129 -0.124,0.153 m 11.726,-2.118 -4.125,0.213 c -0.141,0.007 -0.229,0 -0.263,-0.021 -0.035,-0.021 -0.058,-0.122 -0.067,-0.301 l -0.017,-0.331 c -0.008,-0.152 0.003,-0.259 0.034,-0.323 0.031,-0.064 0.126,-0.139 0.285,-0.227 0.247,-0.137 0.366,-0.312 0.355,-0.527 l -0.523,-10.162 c -0.019,-0.383 -0.205,-0.595 -0.558,-0.639 -0.108,-0.012 -0.179,-0.054 -0.214,-0.125 -0.035,-0.072 -0.061,-0.257 -0.075,-0.556 -0.011,-0.196 0.006,-0.317 0.049,-0.358 0.043,-0.042 0.141,-0.068 0.293,-0.075 l 4.049,-0.208 c 0.186,-0.009 0.284,0.074 0.293,0.247 l 0.023,0.449 c 0.007,0.134 -0.004,0.227 -0.032,0.277 -0.029,0.049 -0.112,0.108 -0.25,0.178 -0.187,0.089 -0.306,0.196 -0.357,0.319 -0.05,0.124 -0.069,0.305 -0.057,0.542 l 0.516,10.034 c 0.012,0.237 0.172,0.39 0.482,0.458 0.171,0.042 0.274,0.108 0.306,0.196 0.033,0.089 0.06,0.337 0.081,0.743 0.006,0.123 -0.07,0.189 -0.228,0.197 m 9.608,-12.366 c -0.009,0.033 -0.017,0.069 -0.022,0.107 -0.007,0.057 -0.011,0.115 -0.013,0.177 0.001,0.04 -0.001,0.079 -0.006,0.118 -0.014,0.116 -0.036,0.191 -0.065,0.225 -0.03,0.033 -0.104,0.075 -0.225,0.129 -0.235,0.101 -0.394,0.29 -0.479,0.564 l -3.556,10.898 c -0.117,0.361 -0.201,0.574 -0.248,0.635 -0.047,0.063 -0.107,0.09 -0.18,0.08 l -1.688,-0.206 c -0.107,-0.012 -0.161,-0.051 -0.165,-0.114 l -0.053,-0.68 -0.853,-11.19 c -0.027,-0.339 -0.057,-0.552 -0.093,-0.639 -0.035,-0.086 -0.129,-0.196 -0.283,-0.329 -0.063,-0.047 -0.096,-0.101 -0.1,-0.164 -0.003,-0.062 0.011,-0.225 0.043,-0.486 0.027,-0.222 0.054,-0.359 0.079,-0.408 0.027,-0.051 0.088,-0.071 0.183,-0.059 l 2.077,0.254 c 0.112,0.013 0.176,0.054 0.194,0.12 0.017,0.068 0.011,0.227 -0.02,0.477 l -0.016,0.133 c 10e-4,0.039 -0.001,0.077 -0.006,0.117 -0.011,0.084 -0.11,0.159 -0.301,0.226 -0.302,0.101 -0.467,0.263 -0.494,0.487 -0.008,0.063 -0.01,0.121 -0.006,0.18 l 0.499,6.648 1.948,-6.354 c 0.026,-0.075 0.043,-0.146 0.051,-0.206 0.032,-0.257 -0.069,-0.46 -0.301,-0.606 -0.101,-0.064 -0.152,-0.133 -0.154,-0.207 0.028,-0.317 0.041,-0.479 0.042,-0.485 0.028,-0.232 0.108,-0.341 0.237,-0.326 l 3.82,0.468 c 0.135,0.016 0.191,0.116 0.168,0.3 z m 15.531,6.061 c -0.02,0.028 -0.039,0.059 -0.057,0.094 -0.025,0.051 -0.048,0.104 -0.071,0.161 -0.012,0.039 -0.027,0.075 -0.044,0.11 -0.053,0.106 -0.099,0.169 -0.138,0.191 -0.039,0.02 -0.123,0.037 -0.254,0.047 -0.255,0.017 -0.468,0.142 -0.64,0.372 l -6.985,9.091 c -0.231,0.299 -0.38,0.472 -0.445,0.515 -0.065,0.043 -0.131,0.048 -0.197,0.016 l -1.523,-0.758 c -0.095,-0.047 -0.135,-0.101 -0.117,-0.161 l 0.176,-0.66 2.926,-10.834 c 0.088,-0.329 0.131,-0.54 0.125,-0.633 -0.004,-0.094 -0.055,-0.228 -0.157,-0.405 -0.043,-0.065 -0.056,-0.128 -0.04,-0.188 0.018,-0.06 0.085,-0.209 0.203,-0.445 0.1,-0.2 0.17,-0.319 0.212,-0.358 0.041,-0.039 0.105,-0.038 0.19,0.005 l 1.875,0.933 c 0.1,0.05 0.148,0.109 0.142,0.178 -0.007,0.069 -0.065,0.216 -0.178,0.441 l -0.06,0.121 c -0.012,0.038 -0.027,0.073 -0.044,0.11 -0.038,0.075 -0.157,0.112 -0.359,0.112 -0.318,-0.007 -0.527,0.091 -0.628,0.294 -0.028,0.057 -0.05,0.111 -0.064,0.167 l -1.747,6.434 3.954,-5.339 c 0.05,-0.064 0.089,-0.123 0.117,-0.178 0.116,-0.233 0.089,-0.457 -0.081,-0.674 -0.074,-0.092 -0.099,-0.174 -0.077,-0.244 0.132,-0.29 0.199,-0.439 0.202,-0.444 0.104,-0.21 0.215,-0.287 0.331,-0.228 l 3.446,1.714 c 0.122,0.059 0.141,0.173 0.059,0.338 z m 9.853,8.411 c -0.094,0.099 -0.168,0.155 -0.224,0.168 -0.055,0.014 -0.155,-0.006 -0.3,-0.058 -0.194,-0.074 -0.353,-0.088 -0.477,-0.039 -0.125,0.049 -0.269,0.16 -0.432,0.331 l -6.926,7.28 c -0.163,0.172 -0.164,0.394 -0.001,0.665 0.087,0.153 0.11,0.273 0.068,0.357 -0.041,0.085 -0.202,0.275 -0.481,0.569 -0.086,0.09 -0.187,0.081 -0.301,-0.028 l -2.993,-2.847 c -0.102,-0.098 -0.158,-0.166 -0.166,-0.205 -0.011,-0.04 0.047,-0.126 0.172,-0.256 l 0.228,-0.239 c 0.104,-0.111 0.191,-0.177 0.258,-0.199 0.068,-0.021 0.188,-0.004 0.361,0.051 0.27,0.084 0.479,0.05 0.626,-0.105 l 7.013,-7.372 c 0.264,-0.279 0.291,-0.561 0.08,-0.847 -0.066,-0.086 -0.085,-0.167 -0.057,-0.241 0.029,-0.073 0.146,-0.22 0.352,-0.437 0.136,-0.142 0.234,-0.214 0.294,-0.211 0.06,0.003 0.145,0.056 0.256,0.161 l 2.937,2.795 c 0.136,0.128 0.143,0.256 0.022,0.382 z m 4.086,4.873 c -0.106,0.086 -0.187,0.131 -0.244,0.136 -0.057,0.008 -0.153,-0.025 -0.29,-0.097 -0.182,-0.098 -0.338,-0.132 -0.468,-0.101 -0.13,0.033 -0.287,0.124 -0.472,0.272 l -7.818,6.312 c -0.184,0.149 -0.213,0.368 -0.088,0.658 0.066,0.165 0.074,0.286 0.021,0.364 -0.052,0.078 -0.237,0.246 -0.553,0.5 -0.097,0.079 -0.194,0.056 -0.294,-0.067 l -2.594,-3.214 c -0.089,-0.109 -0.135,-0.185 -0.139,-0.224 -0.003,-0.042 0.064,-0.118 0.205,-0.232 l 0.257,-0.208 c 0.118,-0.095 0.213,-0.149 0.282,-0.162 0.07,-0.013 0.187,0.019 0.351,0.098 0.256,0.12 0.467,0.112 0.635,-0.023 l 7.917,-6.39 c 0.298,-0.242 0.362,-0.518 0.19,-0.83 -0.054,-0.093 -0.062,-0.175 -0.024,-0.246 0.037,-0.07 0.172,-0.199 0.405,-0.387 0.154,-0.124 0.26,-0.181 0.319,-0.171 0.059,0.01 0.136,0.075 0.232,0.194 l 2.548,3.155 c 0.116,0.144 0.107,0.272 -0.029,0.381 z m 3.796,5.132 -0.384,0.235 c -0.115,0.071 -0.201,0.105 -0.258,0.103 -0.057,-0.001 -0.149,-0.046 -0.275,-0.134 -0.168,-0.123 -0.318,-0.176 -0.451,-0.162 -0.132,0.016 -0.301,0.085 -0.503,0.208 l -8.576,5.236 c -0.203,0.123 -0.262,0.336 -0.174,0.64 0.044,0.171 0.036,0.292 -0.026,0.364 -0.063,0.071 -0.267,0.212 -0.614,0.423 -0.107,0.065 -0.201,0.03 -0.283,-0.104 l -2.152,-3.527 c -0.074,-0.121 -0.109,-0.201 -0.107,-0.241 0.001,-0.041 0.079,-0.108 0.232,-0.202 l 0.283,-0.172 c 0.13,-0.08 0.23,-0.121 0.301,-0.125 0.071,-0.003 0.182,0.044 0.334,0.143 0.238,0.152 0.45,0.173 0.633,0.06 l 8.685,-5.299 c 0.328,-0.201 0.426,-0.466 0.298,-0.797 -0.042,-0.101 -0.039,-0.184 0.007,-0.248 0.046,-0.065 0.197,-0.174 0.452,-0.331 0.169,-0.102 0.282,-0.145 0.34,-0.127 0.057,0.018 0.125,0.092 0.204,0.222 l 2.112,3.461 c 0.098,0.158 0.071,0.284 -0.078,0.374 m 2.717,5.822 -0.411,0.181 c -0.123,0.056 -0.213,0.079 -0.27,0.07 -0.056,-0.009 -0.141,-0.065 -0.255,-0.169 -0.15,-0.143 -0.292,-0.216 -0.426,-0.219 -0.134,-0.002 -0.309,0.045 -0.526,0.14 l -9.183,4.078 c -0.217,0.096 -0.302,0.3 -0.256,0.613 0.023,0.176 -0.003,0.295 -0.074,0.357 -0.07,0.063 -0.292,0.176 -0.663,0.34 -0.114,0.051 -0.202,0.005 -0.266,-0.14 l -1.676,-3.776 c -0.058,-0.129 -0.082,-0.214 -0.075,-0.253 0.006,-0.041 0.092,-0.097 0.257,-0.171 l 0.303,-0.133 c 0.138,-0.062 0.242,-0.09 0.314,-0.085 0.07,0.006 0.174,0.068 0.313,0.186 0.217,0.181 0.423,0.229 0.619,0.142 l 9.299,-4.129 c 0.352,-0.155 0.484,-0.406 0.399,-0.751 -0.028,-0.104 -0.015,-0.186 0.04,-0.244 0.054,-0.058 0.217,-0.149 0.491,-0.27 0.181,-0.079 0.299,-0.107 0.353,-0.081 0.054,0.024 0.112,0.107 0.174,0.245 l 1.646,3.707 c 0.075,0.17 0.032,0.291 -0.127,0.362 m 3.046,12.227 -0.442,0.073 c -0.135,0.021 -0.227,0.021 -0.279,-0.002 -0.053,-0.023 -0.121,-0.099 -0.205,-0.228 -0.109,-0.177 -0.228,-0.283 -0.357,-0.319 -0.129,-0.037 -0.31,-0.036 -0.544,0.002 l -9.917,1.621 c -0.233,0.039 -0.367,0.214 -0.402,0.529 -0.022,0.176 -0.077,0.284 -0.16,0.327 -0.085,0.042 -0.328,0.096 -0.729,0.161 -0.123,0.021 -0.197,-0.048 -0.222,-0.204 l -0.666,-4.076 c -0.023,-0.14 -0.026,-0.228 -0.009,-0.265 0.016,-0.037 0.115,-0.07 0.292,-0.098 l 0.326,-0.055 c 0.151,-0.024 0.259,-0.025 0.326,-10e-4 0.067,0.023 0.152,0.109 0.257,0.259 0.163,0.23 0.35,0.328 0.563,0.293 l 10.041,-1.64 c 0.379,-0.061 0.571,-0.27 0.576,-0.627 -0.001,-0.107 0.032,-0.184 0.099,-0.226 0.068,-0.041 0.249,-0.087 0.544,-0.136 0.196,-0.031 0.316,-0.029 0.363,0.01 0.045,0.039 0.081,0.132 0.106,0.282 l 0.654,4.002 c 0.03,0.184 -0.042,0.291 -0.215,0.318 m 0.32,6.419 -0.449,0.013 c -0.136,0.005 -0.228,-0.008 -0.277,-0.038 -0.049,-0.03 -0.106,-0.114 -0.172,-0.253 -0.086,-0.19 -0.19,-0.311 -0.313,-0.364 -0.122,-0.051 -0.302,-0.074 -0.54,-0.068 l -10.043,0.308 c -0.236,0.007 -0.393,0.164 -0.468,0.471 -0.046,0.171 -0.114,0.272 -0.203,0.302 -0.088,0.031 -0.336,0.053 -0.743,0.066 -0.124,0.002 -0.188,-0.074 -0.193,-0.233 l -0.126,-4.128 c -0.004,-0.14 0.004,-0.228 0.025,-0.263 0.022,-0.035 0.123,-0.055 0.304,-0.06 l 0.33,-0.01 c 0.152,-0.005 0.259,0.009 0.322,0.041 0.064,0.031 0.137,0.127 0.221,0.289 0.132,0.25 0.305,0.372 0.52,0.366 l 10.17,-0.311 c 0.384,-0.011 0.601,-0.192 0.652,-0.545 0.015,-0.107 0.057,-0.178 0.129,-0.212 0.072,-0.033 0.258,-0.054 0.557,-0.063 0.198,-0.006 0.317,0.013 0.358,0.057 0.041,0.044 0.064,0.142 0.068,0.295 l 0.124,4.052 c 0.006,0.186 -0.079,0.282 -0.253,0.288 m -12.688,4.86 c -0.068,0.163 -0.148,0.255 -0.24,0.274 -0.093,0.019 -0.341,0.009 -0.746,-0.032 -0.123,-0.013 -0.177,-0.098 -0.161,-0.255 l 0.415,-4.111 c 0.014,-0.139 0.034,-0.225 0.059,-0.256 0.026,-0.032 0.129,-0.04 0.309,-0.021 l 0.328,0.033 c 0.151,0.015 0.257,0.043 0.316,0.083 0.058,0.04 0.117,0.146 0.18,0.316 0.098,0.265 0.254,0.409 0.467,0.43 l 10.124,1.021 c 0.381,0.039 0.62,-0.113 0.717,-0.455 0.028,-0.106 0.08,-0.169 0.157,-0.193 0.075,-0.022 0.262,-0.02 0.56,0.009 0.196,0.021 0.312,0.055 0.346,0.104 0.036,0.048 0.045,0.149 0.03,0.301 l -0.407,4.035 c -0.019,0.184 -0.115,0.268 -0.29,0.251 l -0.446,-0.045 c -0.134,-0.014 -0.224,-0.039 -0.268,-0.075 -0.045,-0.035 -0.091,-0.127 -0.139,-0.273 -0.06,-0.198 -0.147,-0.331 -0.261,-0.401 -0.116,-0.067 -0.29,-0.114 -0.527,-0.137 l -9.997,-1.009 c -0.236,-0.023 -0.411,0.111 -0.526,0.406 m 4.758,17.766 -8.896,-4.672 c -0.21,-0.109 -0.424,-0.05 -0.64,0.182 -0.123,0.125 -0.232,0.179 -0.325,0.163 -0.093,-0.017 -0.32,-0.12 -0.68,-0.309 -0.108,-0.057 -0.127,-0.157 -0.054,-0.297 l 1.92,-3.657 c 0.066,-0.125 0.117,-0.197 0.152,-0.216 0.036,-0.02 0.134,0.012 0.294,0.097 l 0.292,0.153 c 0.135,0.071 0.222,0.135 0.261,0.195 0.039,0.057 0.055,0.178 0.05,0.36 -0.008,0.283 0.083,0.473 0.273,0.573 l 9.008,4.73 c 0.34,0.178 0.618,0.128 0.836,-0.155 0.065,-0.085 0.137,-0.126 0.217,-0.119 0.078,0.006 0.251,0.079 0.516,0.218 0.175,0.092 0.27,0.167 0.283,0.226 0.014,0.057 -0.015,0.154 -0.085,0.289 l -1.885,3.591 c -0.087,0.165 -0.208,0.207 -0.363,0.125 l -0.397,-0.208 c -0.119,-0.064 -0.193,-0.121 -0.222,-0.169 -0.028,-0.051 -0.036,-0.153 -0.026,-0.306 0.019,-0.207 -0.011,-0.363 -0.092,-0.47 -0.081,-0.106 -0.227,-0.215 -0.437,-0.324 m -13.236,-0.798 c -0.101,-0.071 -0.107,-0.172 -0.016,-0.301 l 2.378,-3.378 c 0.082,-0.116 0.141,-0.18 0.179,-0.195 0.037,-0.015 0.131,0.03 0.278,0.134 l 0.271,0.19 c 0.124,0.088 0.202,0.163 0.233,0.227 0.031,0.063 0.032,0.185 0.002,0.365 -0.044,0.278 0.021,0.48 0.197,0.603 l 8.32,5.857 c 0.313,0.221 0.596,0.206 0.848,-0.044 0.076,-0.078 0.152,-0.109 0.23,-0.092 0.078,0.017 0.239,0.112 0.485,0.284 0.161,0.114 0.245,0.201 0.251,0.26 0.006,0.06 -0.035,0.151 -0.122,0.277 l -2.334,3.315 c -0.107,0.152 -0.233,0.177 -0.376,0.076 l -0.367,-0.257 c -0.111,-0.077 -0.176,-0.143 -0.197,-0.196 -0.023,-0.053 -0.018,-0.156 0.013,-0.307 0.045,-0.202 0.035,-0.362 -0.032,-0.477 -0.066,-0.116 -0.196,-0.242 -0.39,-0.378 l -8.216,-5.785 c -0.194,-0.136 -0.413,-0.105 -0.658,0.096 -0.138,0.109 -0.253,0.15 -0.344,0.121 -0.09,-0.03 -0.301,-0.16 -0.633,-0.395 m -10.504,8.85 c 0.22,0.341 0.366,0.542 0.438,0.602 0.073,0.061 0.195,0.068 0.364,0.019 0.302,-0.094 0.518,-0.041 0.645,0.158 l 5.435,8.451 c 0.129,0.198 0.202,0.365 0.22,0.498 0.018,0.132 -0.032,0.284 -0.15,0.453 -0.086,0.129 -0.128,0.222 -0.128,0.28 0,0.056 0.036,0.142 0.109,0.256 l 0.243,0.377 c 0.095,0.148 0.22,0.17 0.377,0.07 l 3.41,-2.193 c 0.128,-0.083 0.201,-0.153 0.218,-0.21 0.016,-0.058 -0.029,-0.17 -0.136,-0.335 -0.162,-0.252 -0.276,-0.401 -0.342,-0.446 -0.065,-0.045 -0.148,-0.045 -0.247,-0.002 -0.328,0.137 -0.595,0.045 -0.803,-0.278 l -5.504,-8.558 c -0.116,-0.181 -0.1,-0.391 0.046,-0.632 0.094,-0.157 0.139,-0.269 0.134,-0.339 -0.004,-0.071 -0.049,-0.17 -0.131,-0.298 l -0.178,-0.278 c -0.098,-0.153 -0.167,-0.228 -0.208,-0.229 -0.04,0 -0.121,0.037 -0.239,0.113 l -3.474,2.236 c -0.133,0.085 -0.166,0.179 -0.099,0.285 m -17.524,22.457 c -0.358,0 -1.237,6.615 -1.237,6.615 l 0.069,0.002 c 0.883,0.017 1.717,0.014 2.562,-0.004 0,0 -0.958,-6.613 -1.394,-6.613 m -7.056,2.111 -0.505,4.048 c 0.866,0.107 1.749,0.198 2.626,0.269 l 0.33,-4.065 c -0.819,-0.066 -1.644,-0.151 -2.451,-0.252 m 14.251,-0.015 c -0.806,0.103 -1.631,0.19 -2.448,0.257 l 0.337,4.066 c 0.878,-0.073 1.761,-0.166 2.627,-0.277 z m -20.066,-1.022 -0.927,3.973 c 0.856,0.2 1.725,0.382 2.586,0.543 l 0.75,-4.009 c -0.802,-0.151 -1.612,-0.32 -2.409,-0.507 m 25.88,-0.029 c -0.796,0.187 -1.607,0.359 -2.409,0.512 l 0.762,4.007 c 0.86,-0.163 1.73,-0.348 2.583,-0.55 z m -31.554,-1.612 -1.338,3.853 c 0.83,0.289 1.675,0.561 2.513,0.811 l 1.168,-3.908 c -0.78,-0.232 -1.568,-0.487 -2.343,-0.756 m 37.227,-0.047 c -0.773,0.271 -1.563,0.528 -2.345,0.764 l 1.178,3.905 c 0.84,-0.253 1.687,-0.529 2.518,-0.821 z m -42.69,-2.18 -1.737,3.691 c 0.791,0.371 1.6,0.731 2.408,1.069 l 1.573,-3.764 c -0.752,-0.315 -1.508,-0.649 -2.244,-0.996 m 48.163,-0.071 c -0.741,0.351 -1.499,0.69 -2.252,1.008 l 1.585,3.758 c 0.807,-0.34 1.62,-0.704 2.414,-1.081 z m -53.362,-2.716 -2.114,3.488 c 0.749,0.454 1.518,0.897 2.284,1.316 l 1.96,-3.578 c -0.714,-0.39 -1.431,-0.804 -2.13,-1.226 m 58.565,-0.095 c -0.699,0.427 -1.417,0.843 -2.132,1.237 l 1.97,3.572 c 0.767,-0.423 1.536,-0.87 2.286,-1.327 z m -63.448,-3.224 -2.466,3.249 c 0.698,0.53 1.417,1.05 2.137,1.549 l 2.321,-3.354 c -0.671,-0.465 -1.342,-0.95 -1.992,-1.444 m 68.328,-0.115 c -0.65,0.496 -1.32,0.985 -1.991,1.453 l 2.333,3.346 c 0.719,-0.501 1.436,-1.024 2.133,-1.557 z m -72.842,-3.696 -2.79,2.976 c 0.64,0.599 1.3,1.192 1.964,1.763 l 2.659,-3.094 c -0.62,-0.532 -1.236,-1.087 -1.833,-1.645 m 77.347,-0.131 c -0.598,0.563 -1.213,1.119 -1.829,1.651 l 2.668,3.086 c 0.66,-0.571 1.319,-1.166 1.959,-1.77 z m -81.442,-4.13 -3.084,2.67 c 0.572,0.66 1.169,1.319 1.771,1.958 l 2.966,-2.8 c -0.563,-0.596 -1.119,-1.212 -1.653,-1.828 m 85.522,-0.142 c -0.529,0.615 -1.083,1.231 -1.646,1.832 l 2.974,2.79 c 0.604,-0.643 1.197,-1.303 1.764,-1.962 z m -89.152,-4.523 -3.345,2.334 c 0.501,0.718 1.025,1.437 1.558,2.134 l 3.24,-2.479 c -0.497,-0.65 -0.985,-1.319 -1.453,-1.989 m 92.764,-0.148 c -0.461,0.666 -0.947,1.336 -1.444,1.99 l 3.247,2.467 c 0.533,-0.702 1.055,-1.42 1.551,-2.136 z m -95.891,-4.87 -3.571,1.97 c 0.425,0.77 0.872,1.539 1.33,2.287 l 3.48,-2.127 c -0.426,-0.697 -0.842,-1.414 -1.239,-2.13 m 98.995,-0.151 c -0.389,0.711 -0.803,1.428 -1.229,2.13 l 3.489,2.114 c 0.456,-0.753 0.899,-1.52 1.317,-2.282 z m -101.579,-5.172 -3.757,1.586 c 0.341,0.81 0.706,1.623 1.082,2.415 l 3.684,-1.75 c -0.35,-0.738 -0.689,-1.496 -1.009,-2.251 m 104.139,-0.14 c -0.317,0.756 -0.653,1.511 -0.998,2.245 l 3.69,1.738 c 0.37,-0.786 0.73,-1.597 1.071,-2.407 z m -106.148,-5.426 -3.905,1.181 c 0.255,0.842 0.532,1.69 0.823,2.517 l 3.848,-1.352 c -0.271,-0.772 -0.529,-1.561 -0.766,-2.346 m 108.137,-0.134 c -0.234,0.782 -0.488,1.569 -0.757,2.342 l 3.852,1.341 c 0.289,-0.829 0.562,-1.675 0.814,-2.513 z m -109.548,-5.602 -4.006,0.763 c 0.165,0.865 0.351,1.736 0.551,2.584 l 3.97,-0.94 c -0.188,-0.789 -0.36,-1.6 -0.515,-2.407 m 110.942,-0.139 c -0.151,0.807 -0.322,1.619 -0.507,2.411 l 3.972,0.927 c 0.198,-0.849 0.382,-1.718 0.544,-2.583 z m -111.741,-5.714 -4.065,0.341 c 0.074,0.875 0.167,1.759 0.278,2.626 l 4.045,-0.517 c -0.102,-0.808 -0.19,-1.633 -0.258,-2.45 m 112.526,-0.141 c -0.066,0.812 -0.151,1.636 -0.253,2.451 l 4.048,0.506 c 0.11,-0.874 0.2,-1.756 0.271,-2.626 z m -116.79,-5.858 -0.001,0.084 c -0.007,0.38 -0.012,0.771 -0.012,1.163 0,0.469 0.006,0.937 0.016,1.403 0,0 6.613,-0.965 6.613,-1.403 0,-0.365 -6.616,-1.247 -6.616,-1.247 m 121.04,-0.262 c 0,0 -6.61,1.009 -6.61,1.465 0,0.365 6.614,1.306 6.614,1.306 l 0.003,-0.143 c 0.008,-0.379 0.012,-0.771 0.012,-1.163 0,-0.489 -0.006,-0.977 -0.019,-1.465 M 51.995,325.071 c -0.108,0.869 -0.198,1.753 -0.268,2.626 l 4.066,0.326 c 0.065,-0.814 0.149,-1.638 0.25,-2.45 z m 120.109,-0.27 -4.047,0.521 c 0.104,0.807 0.191,1.63 0.261,2.449 l 4.064,-0.344 c -0.073,-0.878 -0.168,-1.761 -0.278,-2.626 m -119,-5.967 c -0.199,0.854 -0.38,1.724 -0.541,2.585 l 4.009,0.749 c 0.15,-0.803 0.32,-1.614 0.505,-2.41 z m 117.861,-0.266 -3.968,0.945 c 0.189,0.792 0.362,1.601 0.515,2.406 l 4.007,-0.768 c -0.165,-0.863 -0.352,-1.732 -0.554,-2.583 m -116.104,-5.82 c -0.287,0.827 -0.56,1.673 -0.81,2.513 l 3.909,1.167 c 0.234,-0.783 0.488,-1.572 0.756,-2.344 z m 114.316,-0.264 -3.848,1.355 c 0.273,0.775 0.531,1.564 0.769,2.346 L 170,315 c -0.254,-0.838 -0.531,-1.685 -0.823,-2.516 m -111.928,-5.6 c -0.373,0.793 -0.732,1.602 -1.069,2.409 l 3.764,1.571 c 0.314,-0.752 0.649,-1.507 0.996,-2.245 z m 109.505,-0.267 -3.683,1.753 c 0.352,0.743 0.693,1.5 1.011,2.25 l 3.756,-1.589 c -0.34,-0.805 -0.705,-1.618 -1.084,-2.414 m -106.518,-5.31 c -0.454,0.749 -0.897,1.518 -1.317,2.286 l 3.58,1.956 c 0.391,-0.715 0.804,-1.432 1.226,-2.13 z m 103.495,-0.265 -3.48,2.13 c 0.428,0.698 0.845,1.415 1.241,2.13 l 3.57,-1.975 c -0.426,-0.767 -0.873,-1.536 -1.331,-2.285 M 63.79,296.07 c -0.531,0.701 -1.052,1.42 -1.547,2.137 l 3.355,2.32 c 0.461,-0.669 0.947,-1.339 1.444,-1.993 z m 96.354,-0.254 -3.238,2.482 c 0.498,0.65 0.989,1.319 1.456,1.987 l 3.343,-2.337 c -0.501,-0.717 -1.026,-1.433 -1.561,-2.132 m -92.272,-4.585 c -0.603,0.644 -1.196,1.306 -1.762,1.965 l 3.096,2.657 c 0.528,-0.616 1.08,-1.233 1.644,-1.833 z m 88.163,-0.236 -2.963,2.803 c 0.562,0.594 1.118,1.208 1.654,1.826 l 3.082,-2.673 c -0.575,-0.662 -1.171,-1.32 -1.773,-1.956 m -83.597,-4.156 c -0.662,0.573 -1.321,1.169 -1.959,1.771 l 2.802,2.966 c 0.596,-0.563 1.211,-1.119 1.827,-1.653 z m 79.011,-0.212 -2.656,3.097 c 0.619,0.53 1.236,1.083 1.834,1.643 l 2.787,-2.978 c -0.642,-0.601 -1.303,-1.194 -1.965,-1.762 m -74.013,-3.682 c -0.723,0.503 -1.439,1.029 -2.134,1.56 l 2.481,3.238 c 0.647,-0.495 1.315,-0.984 1.988,-1.454 z m 68.998,-0.184 -2.317,3.357 c 0.669,0.463 1.34,0.948 1.992,1.443 l 2.463,-3.252 c -0.699,-0.531 -1.419,-1.05 -2.138,-1.548 m -63.618,-3.17 c -0.77,0.425 -1.54,0.873 -2.286,1.329 l 2.13,3.479 c 0.694,-0.425 1.411,-0.841 2.13,-1.239 z m 58.232,-0.149 -1.956,3.58 c 0.718,0.392 1.434,0.805 2.132,1.226 l 2.109,-3.491 c -0.747,-0.452 -1.515,-0.894 -2.285,-1.315 m -52.526,-2.625 c -0.809,0.342 -1.621,0.706 -2.415,1.083 l 1.753,3.684 c 0.739,-0.352 1.495,-0.691 2.25,-1.01 z m 46.825,-0.111 -1.571,3.764 c 0.756,0.315 1.512,0.65 2.246,0.995 l 1.733,-3.693 c -0.788,-0.37 -1.598,-0.729 -2.408,-1.066 m -40.855,-2.049 c -0.842,0.255 -1.688,0.532 -2.516,0.824 l 1.353,3.847 c 0.773,-0.271 1.562,-0.529 2.345,-0.767 z m 34.884,-0.078 -1.163,3.91 c 0.778,0.232 1.567,0.485 2.342,0.754 l 1.336,-3.853 c -0.832,-0.289 -1.679,-0.562 -2.515,-0.811 m -28.732,-1.437 c -0.856,0.164 -1.725,0.35 -2.581,0.552 l 0.938,3.97 c 0.801,-0.189 1.61,-0.363 2.409,-0.516 z m 22.573,-0.048 -0.745,4.01 c 0.799,0.148 1.609,0.318 2.408,0.503 l 0.923,-3.973 c -0.858,-0.199 -1.728,-0.381 -2.586,-0.54 m -16.298,-0.814 c -0.88,0.075 -1.763,0.169 -2.626,0.28 l 0.521,4.046 c 0.803,-0.104 1.626,-0.191 2.448,-0.26 z m 10.019,-0.019 -0.323,4.066 c 0.815,0.066 1.639,0.15 2.449,0.25 l 0.502,-4.049 c -0.871,-0.107 -1.754,-0.197 -2.628,-0.267 m -4.895,-0.195 c -0.479,0 -0.956,0.006 -1.433,0.017 0,0 1,6.612 1.455,6.612 0.347,0 1.216,-6.615 1.216,-6.615 l -0.061,-0.002 c -0.393,-0.008 -0.785,-0.012 -1.177,-0.012 m 0.022,93.06 c -17.934,0 -32.525,-14.59 -32.525,-32.524 0,-17.934 14.591,-32.525 32.525,-32.525 17.934,0 32.524,14.591 32.524,32.525 0,17.934 -14.59,32.524 -32.524,32.524 m 0,-67.088 c -19.059,0 -34.564,15.506 -34.564,34.564 0,19.058 15.505,34.564 34.564,34.564 19.059,0 34.564,-15.506 34.564,-34.564 0,-19.058 -15.505,-34.564 -34.564,-34.564 m 0,85.289 c -27.97,0 -50.725,-22.756 -50.725,-50.725 0,-27.97 22.755,-50.725 50.725,-50.725 27.97,0 50.725,22.755 50.725,50.725 0,27.969 -22.755,50.725 -50.725,50.725 m 0,-103.489 c -29.095,0 -52.765,23.67 -52.765,52.764 0,29.094 23.67,52.765 52.765,52.765 29.094,0 52.765,-23.671 52.765,-52.765 0,-29.094 -23.671,-52.764 -52.765,-52.764 m 0,116.5 c -35.145,0 -63.736,-28.592 -63.736,-63.736 0,-35.145 28.591,-63.736 63.736,-63.736 35.144,0 63.736,28.591 63.736,63.736 0,35.144 -28.592,63.736 -63.736,63.736 m 0,-137.67 c -40.767,0 -73.934,33.167 -73.934,73.934 0,40.767 33.167,73.934 73.934,73.934 40.767,0 73.934,-33.167 73.934,-73.934 0,-40.767 -33.167,-73.934 -73.934,-73.934" />
      <path
         inkscape:connector-curvature="0"
         id="path36040"
         style="fill:#eaa2a1;fill-opacity:1;fill-rule:nonzero;stroke:none"
         d="m 142.354,341.025 -1.467,-1.052 c 0.894,-3.095 1.251,-5.933 1.25,-9.178 l -2.039,10e-4 c 10e-4,2.844 -0.378,5.663 -1.109,8.388 -0.935,0.155 -1.859,0.144 -2.517,0.153 0,0 1.268,4.072 -0.212,9.392 0,0 4.01,-3.569 6.094,-7.704" />
      <path
         inkscape:connector-curvature="0"
         id="path36042"
         style="fill:#d63341;fill-opacity:1;fill-rule:nonzero;stroke:none"
         d="m 141.531,341.394 -1.467,-1.053 c 0.895,-3.095 1.251,-5.932 1.25,-9.177 h -2.039 c 0.001,2.844 -0.378,5.663 -1.109,8.389 -0.935,0.155 -1.858,0.143 -2.517,0.152 0,0 1.268,4.073 -0.211,9.394 0,0 4.009,-3.57 6.093,-7.705" />
      <path
         inkscape:connector-curvature="0"
         id="path36044"
         style="fill:#ffffff;fill-opacity:1;fill-rule:nonzero;stroke:none"
         d="m 139.223,333.005 -0.037,0.556 2.042,0.239 0.035,-0.585 z" />
      <path
         inkscape:connector-curvature="0"
         id="path36046"
         style="fill:#ffffff;fill-opacity:1;fill-rule:nonzero;stroke:none"
         d="m 138.995,335.408 -0.065,0.459 2.051,0.255 0.069,-0.502 z" />
      <path
         inkscape:connector-curvature="0"
         id="path36048"
         style="fill:#ffffff;fill-opacity:1;fill-rule:nonzero;stroke:none"
         d="m 138.557,337.931 -0.114,0.512 2.043,0.289 0.111,-0.487 z" />
      <path
         inkscape:connector-curvature="0"
         id="path36050"
         style="fill:#231f20;fill-opacity:1;fill-rule:nonzero;stroke:none"
         d="m 117.617,324.385 -24.588,33.966 25.407,-33.357 z" />
      <path
         inkscape:connector-curvature="0"
         id="path36052"
         style="fill:#9ba1a7;fill-opacity:1;fill-rule:nonzero;stroke:none"
         d="m 120.311,336.354 c -0.859,-0.982 -1.601,-1.83 -2.082,-2.122 -0.356,-0.216 -0.871,-0.398 -1.25,-0.26 -0.206,0.074 -0.382,0.248 -0.527,0.512 l 4.762,2.892 c -0.314,-0.351 -0.615,-0.693 -0.903,-1.022 m -4.452,-0.896 c -0.16,0.244 -0.23,0.477 -0.201,0.688 0.053,0.401 0.452,0.774 0.808,0.991 0.48,0.292 1.576,0.559 2.842,0.868 0.405,0.1 0.83,0.202 1.265,0.314 z m -3.794,-3.573 c -0.396,0 -0.717,0.321 -0.717,0.717 0,0.395 0.321,0.716 0.717,0.716 0.396,0 0.716,-0.321 0.716,-0.716 0,-0.396 -0.32,-0.717 -0.716,-0.717 m 13.97,11.977 c -0.104,-0.75 -0.166,-1.725 -0.198,-2.368 -0.553,-0.335 -1.112,-0.586 -1.722,-0.842 l -0.468,0.771 -0.659,-1.204 c -1.352,-0.473 -2.737,-0.811 -3.95,-1.108 -1.415,-0.345 -2.533,-0.618 -3.164,-1.001 -0.362,-0.219 -1.216,-0.836 -1.346,-1.814 -0.06,-0.462 0.048,-0.923 0.323,-1.375 0.01,-0.019 0.023,-0.037 0.035,-0.055 l -1.376,-0.835 c -0.66,0.609 -1.665,0.737 -2.47,0.249 -0.78,-0.473 -1.133,-1.38 -0.941,-2.222 -2.533,-1.704 -6.625,-3.12 -8.539,-2.806 v -0.001 c 0.649,-0.313 1.561,-1.403 1.668,-2.13 0.595,-0.43 1.15,-1.757 1.13,-2.477 0.604,1.844 3.753,4.823 6.434,6.285 0.659,-0.547 1.617,-0.648 2.39,-0.178 0.804,0.488 1.155,1.44 0.919,2.306 l 1.377,0.836 c 0.012,-0.025 0.026,-0.049 0.041,-0.073 0.273,-0.452 0.632,-0.759 1.071,-0.919 0.929,-0.337 1.868,0.138 2.23,0.358 0.632,0.384 1.389,1.249 2.349,2.345 0.818,0.935 1.75,2 2.787,2.977 l 1.398,0.031 -0.478,0.785 c 0.51,0.423 1.041,0.814 1.592,1.149 0.586,-0.267 1.433,-0.638 2.115,-0.881 1.905,3.446 5.924,6.427 5.924,6.427 0,0 -4.536,-2.129 -8.472,-2.23" />
      <path
         inkscape:connector-curvature="0"
         id="path36054"
         style="fill:#231f20;fill-opacity:1;fill-rule:nonzero;stroke:none"
         d="m 121.064,331.61 c -1.241,-0.396 -2.314,-0.741 -2.877,-0.744 -0.416,-10e-4 -0.952,0.11 -1.206,0.422 -0.138,0.171 -0.198,0.41 -0.187,0.712 l 5.572,0.023 c -0.45,-0.139 -0.886,-0.278 -1.302,-0.413 m -4.093,2.223 c 0.252,0.316 0.786,0.431 1.202,0.432 0.563,0.003 1.64,-0.333 2.884,-0.721 0.399,-0.124 0.815,-0.254 1.246,-0.384 l -5.514,-0.021 c -0.011,0.293 0.048,0.527 0.182,0.694 m -4.906,-1.948 c -0.396,0 -0.717,0.321 -0.717,0.717 0,0.395 0.321,0.716 0.717,0.716 0.396,0 0.716,-0.321 0.716,-0.716 0,-0.396 -0.32,-0.717 -0.716,-0.717 m 17.776,3.209 c -0.476,-0.589 -1.032,-1.391 -1.391,-1.927 -0.647,-0.002 -1.255,0.071 -1.91,0.166 l -0.004,0.901 -1.184,-0.69 c -1.402,0.292 -2.764,0.715 -3.956,1.087 -1.391,0.433 -2.489,0.776 -3.228,0.773 -0.422,-0.002 -1.472,-0.089 -2.087,-0.861 -0.291,-0.365 -0.435,-0.814 -0.435,-1.343 0,-0.021 0.002,-0.045 0.003,-0.066 l -1.61,-0.006 c -0.251,0.861 -1.047,1.489 -1.989,1.486 -0.91,-0.004 -1.68,-0.597 -1.951,-1.419 -3.048,-0.152 -7.285,0.743 -8.762,1.999 0.393,-0.603 0.612,-2.008 0.33,-2.685 0.288,-0.675 0.08,-2.1 -0.309,-2.707 1.469,1.269 5.703,2.198 8.753,2.069 0.283,-0.808 1.052,-1.389 1.956,-1.385 0.942,0.004 1.733,0.64 1.977,1.503 l 1.611,0.007 c -0.002,-0.028 -0.003,-0.058 -0.003,-0.085 0.002,-0.528 0.151,-0.977 0.445,-1.34 0.62,-0.766 1.672,-0.845 2.095,-0.842 0.738,0.002 1.833,0.354 3.221,0.798 1.183,0.379 2.532,0.812 3.922,1.114 l 1.214,-0.694 -0.004,0.918 c 0.656,0.1 1.311,0.161 1.958,0.164 0.363,-0.53 0.897,-1.285 1.358,-1.845 3.408,1.971 8.389,2.454 8.389,2.454 0,0 -4.985,0.513 -8.409,2.456" />
      <path
         inkscape:connector-curvature="0"
         id="path36056"
         style="fill:#231f20;fill-opacity:1;fill-rule:nonzero;stroke:none"
         d="m 112.065,331.885 c -0.396,0 -0.717,0.321 -0.717,0.717 0,0.395 0.321,0.716 0.717,0.716 0.396,0 0.716,-0.321 0.716,-0.716 0,-0.396 -0.32,-0.717 -0.716,-0.717 m -0.713,5.636 c -0.314,0.252 -0.426,0.788 -0.426,1.204 0,0.562 0.338,1.637 0.732,2.88 0.125,0.399 0.407,1.45 0.407,1.45 0.137,-0.451 0.265,-1.063 0.396,-1.479 0.393,-1.244 0.733,-2.318 0.733,-2.881 0,-0.416 -0.112,-0.951 -0.426,-1.204 -0.15,-0.121 -0.356,-0.178 -0.608,-0.182 v -0.004 c -0.017,0 -0.036,0.003 -0.053,0.003 -0.018,0 -0.034,-0.002 -0.051,-10e-4 v 0.003 c -0.268,0.01 -0.556,0.091 -0.704,0.211 m 1.375,-6.869 c 0.809,0.28 1.392,1.047 1.392,1.952 0,0.942 -0.631,1.735 -1.494,1.982 v 1.61 c 0.028,-0.001 0.056,-0.002 0.083,-0.002 0.529,0 0.978,0.147 1.343,0.439 0.768,0.618 0.851,1.668 0.851,2.092 0,0.738 -0.347,1.836 -0.786,3.224 -0.374,1.185 -0.801,2.534 -1.098,3.927 l 0.698,1.211 h -0.918 c -0.097,0.655 -0.155,1.311 -0.155,1.957 h -0.018 v 4.699 c 0.531,0.362 1.288,0.894 1.85,1.352 -1.957,3.416 -2.419,8.398 -2.419,8.398 0,0 -0.534,-4.982 -2.492,-8.398 0.588,-0.48 1.389,-1.038 1.922,-1.401 v -4.65 c 0,-0.646 -0.059,-1.302 -0.155,-1.957 h -0.902 l 0.686,-1.188 c -0.298,-1.4 -0.726,-2.759 -1.103,-3.95 -0.439,-1.388 -0.785,-2.486 -0.785,-3.224 0,-0.424 0.082,-1.474 0.852,-2.092 0.363,-0.292 0.812,-0.439 1.341,-0.439 0.021,0 0.044,10e-4 0.066,0.002 v -1.61 c -0.862,-0.247 -1.494,-1.04 -1.494,-1.982 0,-0.913 0.59,-1.684 1.41,-1.958 0.141,-3.048 -0.772,-7.282 -2.033,-8.754 0.605,0.391 2.01,0.605 2.687,0.32 0.676,0.285 2.099,0.071 2.704,-0.32 -1.263,1.473 -2.175,5.712 -2.033,8.76" />
      <path
         inkscape:connector-curvature="0"
         id="path36058"
         style="fill:#ffffff;fill-opacity:1;fill-rule:nonzero;stroke:none"
         d="m 112.065,333.318 c -0.396,0 -0.717,-0.321 -0.717,-0.716 0,-0.396 0.321,-0.717 0.717,-0.717 0.396,0 0.716,0.321 0.716,0.717 0,0.395 -0.32,0.716 -0.716,0.716" />
    </g>
  </g>
</svg>
